PathFileType  4	(X/Y/Z) C:\Users\Jenny Yong\Documents\NMBL\GaitRetraining\Subject20\WeekOne\
DataRate	CameraRate	NumFrames	NumMarkers	Units	OrigDataRate	OrigDataStartFrame	OrigNumFrames
  200.0		  200.0		    10		     42		 mm	  200.0	      145	    289
Frame#	Time	R.Shoulder			L.Shoulder			R.Clavicle			L.Clavicle			R.Biceps			R.Elbow			R.Forearm			R.Wrist			L.Biceps			L.Elbow			L.Forearm			L.Wrist			R.ASIS			L.ASIS			R.PSIS			S2			L.PSIS			R.TH1			R.TH2			R.TH3			R.Knee			R.SH1			R.SH2			R.SH3			R.SH4			R.Ankle			R.MAnkle			R.Heel			R.MT5			R.Toe			L.TH1			L.TH2			L.TH3			L.TH4			L.Knee			L.SH1			L.SH2			L.SH3			L.Ankle			L.Heel			L.MT5			L.Toe			
		X1	Y1	Z1	X2	Y2	Z2	X3	Y3	Z3	X4	Y4	Z4	X5	Y5	Z5	X6	Y6	Z6	X7	Y7	Z7	X8	Y8	Z8	X9	Y9	Z9	X10	Y10	Z10	X11	Y11	Z11	X12	Y12	Z12	X13	Y13	Z13	X14	Y14	Z14	X15	Y15	Z15	X16	Y16	Z16	X17	Y17	Z17	X18	Y18	Z18	X19	Y19	Z19	X20	Y20	Z20	X21	Y21	Z21	X22	Y22	Z22	X23	Y23	Z23	X24	Y24	Z24	X25	Y25	Z25	X26	Y26	Z26	X27	Y27	Z27	X28	Y28	Z28	X29	Y29	Z29	X30	Y30	Z30	X31	Y31	Z31	X32	Y32	Z32	X33	Y33	Z33	X34	Y34	Z34	X35	Y35	Z35	X36	Y36	Z36	X37	Y37	Z37	X38	Y38	Z38	X39	Y39	Z39	X40	Y40	Z40	X41	Y41	Z41	X42	Y42	Z42	

145	0.72000	1551.304	1288.276	-34.058	1511.627	1306.172	-358.226	1573.672	1241.805	-181.862	1570.898	1243.490	-226.245	1441.759	1136.406	36.069	1455.745	1010.122	107.326	1525.697	1011.235	2.006	1641.207	1014.652	-15.422	1417.605	1181.066	-468.190	1344.506	1101.639	-530.348	1419.314	1037.076	-500.337	1551.145	1078.202	-464.692	1531.817	858.792	-77.142	1497.220	904.993	-331.374	1350.246	882.313	-125.971	1339.736	881.193	-169.632	1336.573	900.414	-217.246	1476.512	623.622	-33.349	1381.080	622.370	-78.337	1380.083	492.798	-97.313	1420.309	401.633	-79.120	1360.768	358.537	-75.836	1250.688	357.112	-55.001	1353.341	439.519	-85.423	1232.336	436.833	-78.740	1061.437	368.273	-86.728	1071.849	342.298	-166.807	1054.892	441.579	-133.753	953.499	297.467	-77.184	966.237	243.518	-133.064	1534.371	736.266	-376.127	1589.240	616.667	-354.031	1433.163	699.653	-374.879	1478.835	575.252	-336.938	1598.675	459.232	-315.054	1623.572	355.390	-284.664	1542.461	390.594	-317.609	1503.981	279.234	-321.556	1470.847	96.183	-275.339	1387.043	55.189	-238.163	1566.580	40.295	-283.568	1609.168	56.894	-220.088
146	0.72500	1562.439	1285.623	-33.485	1526.377	1302.026	-358.940	1586.787	1238.954	-181.167	1584.298	1240.375	-225.697	1450.754	1134.880	34.878	1463.122	1008.407	107.261	1534.745	1008.611	1.299	1649.256	1008.718	-13.524	1437.872	1175.709	-469.649	1367.626	1094.575	-533.524	1442.924	1031.202	-502.201	1572.984	1074.095	-463.679	1544.836	854.311	-76.364	1508.371	902.541	-332.312	1363.516	881.444	-123.838	1351.831	879.596	-166.986	1348.223	899.934	-214.034	1494.279	620.656	-32.652	1398.612	617.518	-77.097	1400.990	487.878	-95.950	1443.937	398.129	-78.190	1384.585	356.100	-75.168	1273.462	356.298	-53.535	1378.399	437.214	-84.835	1256.498	436.282	-78.291	1085.123	369.159	-86.023	1095.093	343.602	-166.232	1077.737	442.846	-131.739	977.502	297.757	-76.603	989.550	244.811	-132.601	1543.573	730.047	-377.362	1599.055	611.160	-351.694	1444.816	696.412	-374.390	1486.855	572.575	-332.617	1605.100	454.636	-315.393	1630.670	350.305	-284.840	1550.331	387.019	-318.545	1510.012	276.337	-322.917	1470.976	95.124	-274.349	1387.222	55.721	-238.107	1566.946	39.707	-283.530	1609.890	56.074	-219.995
147	0.73000	1573.180	1282.993	-33.554	1541.916	1298.044	-359.083	1599.064	1235.898	-180.538	1597.310	1237.304	-225.046	1459.742	1133.966	33.564	1469.740	1007.096	107.128	1543.071	1005.444	2.219	1657.983	1003.703	-11.204	1458.269	1170.196	-471.244	1390.749	1087.603	-536.574	1467.040	1025.656	-504.113	1594.872	1070.445	-462.214	1557.172	849.934	-75.725	1520.956	900.504	-332.547	1374.907	880.995	-121.488	1363.757	879.115	-164.861	1360.532	899.370	-211.728	1512.839	617.672	-33.060	1415.655	612.001	-76.509	1421.719	483.680	-95.412	1467.382	394.643	-77.269	1408.319	353.648	-74.472	1297.339	355.223	-52.770	1403.440	434.822	-84.265	1280.815	435.939	-77.544	1108.848	369.322	-85.131	1118.988	346.273	-166.374	1101.179	444.003	-129.781	1001.692	297.424	-76.167	1014.237	246.202	-132.978	1554.665	724.796	-378.034	1608.786	606.376	-351.504	1454.590	692.602	-373.876	1495.124	569.853	-329.500	1610.927	449.093	-315.528	1637.597	345.266	-284.116	1558.358	382.906	-319.422	1516.749	273.247	-322.878	1472.153	94.656	-274.455	1387.300	56.040	-238.057	1567.297	39.065	-283.450	1610.489	55.259	-220.002
148	0.73500	1584.084	1280.882	-33.134	1557.746	1294.614	-359.003	1611.980	1233.202	-179.885	1610.333	1234.452	-224.338	1468.175	1133.316	32.482	1476.718	1006.176	106.926	1550.965	1002.861	3.083	1666.193	999.432	-8.867	1478.104	1164.936	-472.273	1414.509	1081.135	-539.025	1490.030	1019.979	-504.475	1617.119	1067.223	-460.499	1569.873	846.250	-74.585	1533.280	898.251	-332.248	1386.894	879.327	-120.213	1376.014	877.884	-163.537	1372.578	898.603	-209.817	1531.163	615.371	-32.226	1433.469	607.873	-75.102	1442.850	478.131	-93.529	1490.847	391.544	-76.580	1432.380	351.265	-73.872	1321.256	354.172	-52.140	1427.897	432.915	-83.712	1305.595	435.337	-76.815	1132.702	369.347	-84.227	1142.464	347.268	-165.283	1124.344	444.977	-127.678	1026.399	296.268	-75.709	1038.897	246.453	-132.795	1565.562	721.089	-378.476	1617.576	602.068	-351.450	1463.284	689.703	-373.168	1504.890	567.907	-327.052	1618.496	444.283	-315.744	1645.042	340.606	-282.638	1566.896	380.052	-321.527	1522.596	270.243	-322.110	1473.594	94.038	-275.331	1387.429	56.297	-238.321	1567.727	38.420	-283.431	1611.069	54.453	-220.072
149	0.74000	1595.463	1279.066	-32.549	1573.314	1291.779	-359.043	1624.879	1230.980	-178.801	1623.740	1232.077	-223.564	1476.818	1133.026	31.205	1482.928	1005.538	106.686	1558.926	1000.726	3.941	1673.460	995.174	-6.838	1498.439	1160.168	-473.274	1437.975	1074.780	-541.181	1513.800	1015.139	-504.801	1639.193	1064.311	-457.980	1582.373	843.451	-72.555	1546.310	896.925	-331.330	1399.090	878.666	-119.060	1387.993	876.506	-162.876	1385.060	897.875	-208.773	1549.193	613.158	-31.313	1451.386	603.493	-73.628	1464.112	475.062	-92.556	1514.711	389.107	-75.925	1456.774	349.267	-73.260	1345.431	352.973	-51.431	1452.558	431.073	-82.648	1329.944	434.362	-75.964	1156.513	368.873	-83.591	1165.992	348.175	-163.816	1146.470	445.064	-125.778	1051.283	294.481	-75.599	1063.218	246.061	-133.451	1575.767	718.772	-377.634	1626.326	598.691	-351.583	1472.167	688.045	-372.094	1512.384	566.653	-325.734	1626.279	439.226	-315.724	1651.232	335.902	-281.310	1575.360	376.021	-321.035	1528.367	267.864	-321.821	1476.145	94.290	-275.190	1387.370	56.759	-237.922	1568.056	37.880	-283.352	1611.591	53.755	-219.998
150	0.74500	1605.874	1277.576	-31.404	1588.342	1288.881	-358.618	1637.217	1228.797	-177.986	1636.588	1230.008	-222.729	1485.002	1133.076	30.000	1489.222	1005.529	106.224	1566.628	999.266	4.615	1681.001	992.101	-4.846	1518.414	1155.787	-474.091	1461.864	1068.753	-542.801	1538.573	1011.005	-504.539	1661.421	1062.242	-455.076	1594.150	841.817	-70.477	1559.526	895.601	-329.944	1411.077	877.851	-118.687	1400.496	875.516	-162.596	1396.417	897.495	-207.914	1566.784	611.295	-30.438	1468.722	600.238	-71.526	1485.425	472.263	-90.091	1538.446	387.333	-75.224	1480.911	347.394	-73.056	1370.239	351.079	-52.157	1476.797	429.221	-82.059	1354.431	433.677	-74.916	1180.502	368.051	-82.830	1190.165	349.898	-163.989	1169.687	445.074	-123.588	1076.143	292.255	-75.466	1089.103	245.423	-134.057	1586.292	716.711	-376.283	1635.235	594.972	-351.918	1482.597	687.127	-371.375	1520.979	565.441	-325.448	1634.583	434.491	-315.469	1656.756	331.852	-280.415	1582.699	373.377	-321.139	1533.268	266.302	-321.663	1477.440	94.360	-273.732	1387.492	57.343	-237.982	1568.620	37.561	-283.123	1611.946	52.984	-219.909
151	0.75000	1616.337	1276.462	-30.518	1603.450	1286.354	-358.201	1650.158	1227.853	-177.019	1649.979	1228.772	-221.751	1493.064	1133.462	28.591	1495.086	1005.835	105.818	1573.708	998.156	5.239	1688.579	989.917	-2.671	1538.125	1152.012	-474.334	1485.043	1063.076	-543.907	1560.939	1006.913	-502.558	1682.888	1060.567	-451.493	1606.808	841.432	-68.802	1573.129	894.631	-327.891	1423.729	876.381	-118.523	1412.037	874.801	-162.139	1410.174	895.867	-208.381	1584.692	610.417	-29.592	1486.273	596.615	-69.893	1506.061	469.364	-88.513	1561.952	386.409	-75.923	1505.105	346.411	-72.670	1394.340	349.667	-51.665	1501.391	428.313	-81.080	1378.111	432.668	-73.689	1204.498	366.793	-82.076	1214.228	350.214	-163.145	1192.691	444.580	-121.299	1101.287	289.411	-75.582	1114.826	244.541	-135.170	1597.389	715.108	-374.677	1644.215	592.111	-352.742	1493.603	687.717	-370.342	1528.682	564.492	-326.006	1643.140	431.413	-314.916	1662.416	328.572	-279.692	1588.738	371.378	-320.578	1537.660	265.316	-321.232	1478.180	93.959	-273.988	1387.761	58.407	-237.659	1568.902	37.192	-282.913	1612.431	52.333	-219.813
152	0.75500	1627.047	1276.186	-29.837	1619.676	1284.141	-357.524	1662.551	1227.299	-176.082	1663.120	1227.889	-220.811	1501.528	1133.889	26.906	1501.280	1006.935	105.083	1580.579	997.844	5.633	1695.683	988.350	-0.697	1557.402	1148.823	-474.336	1508.896	1057.948	-544.532	1583.283	1001.592	-501.162	1704.731	1059.548	-447.911	1618.891	841.523	-67.281	1587.138	894.063	-325.897	1436.644	875.406	-118.685	1424.947	873.807	-161.876	1425.280	893.756	-209.411	1601.906	609.660	-28.008	1504.218	594.424	-67.567	1527.317	467.034	-86.124	1586.076	386.027	-73.935	1529.453	345.777	-72.462	1418.703	348.454	-51.091	1525.401	428.390	-79.269	1402.307	431.521	-72.555	1228.005	365.094	-81.368	1238.410	349.684	-162.806	1214.977	443.166	-119.662	1126.044	286.123	-75.662	1140.420	242.585	-135.287	1609.526	714.149	-373.359	1654.115	590.242	-352.856	1504.462	688.652	-368.877	1537.402	563.985	-327.185	1651.267	429.549	-314.115	1666.919	325.595	-279.445	1595.469	370.737	-322.845	1542.166	264.850	-321.081	1479.201	93.933	-273.557	1388.239	58.942	-237.366	1569.159	36.954	-282.707	1612.833	51.740	-219.712
153	0.76000	1637.787	1276.612	-29.677	1634.609	1282.753	-357.148	1675.087	1227.224	-175.147	1676.254	1227.608	-219.831	1508.953	1135.255	25.576	1506.748	1008.539	104.348	1592.069	1000.484	5.622	1702.290	987.322	1.295	1577.282	1145.932	-474.186	1532.358	1053.258	-544.764	1607.954	1000.623	-498.420	1725.954	1059.091	-443.488	1630.997	842.436	-66.075	1600.602	893.542	-323.886	1448.612	874.891	-118.987	1438.029	873.174	-162.307	1437.196	893.655	-209.339	1619.452	610.060	-27.224	1521.681	592.168	-66.011	1548.494	465.585	-84.129	1609.537	386.269	-73.365	1553.611	345.516	-72.300	1442.606	347.477	-50.491	1548.594	427.730	-78.639	1425.975	430.493	-71.704	1251.825	363.044	-80.745	1261.933	349.276	-161.896	1237.386	441.523	-118.208	1151.256	282.377	-75.646	1166.173	239.292	-135.778	1621.143	713.001	-371.818	1663.010	588.332	-351.849	1516.459	690.605	-367.752	1545.965	563.955	-328.696	1659.537	428.018	-313.414	1671.435	323.184	-279.253	1600.648	369.500	-322.523	1544.713	263.819	-320.329	1479.424	94.055	-273.320	1388.508	59.138	-237.427	1569.328	36.707	-282.620	1613.314	51.269	-219.621
154	0.76500	1648.199	1277.003	-28.513	1649.729	1281.999	-356.750	1688.151	1227.750	-174.009	1689.535	1227.854	-218.726	1517.056	1137.073	23.895	1512.321	1010.570	103.480	1598.873	1001.531	5.992	1709.221	987.435	3.291	1596.784	1143.390	-473.645	1555.728	1049.113	-544.552	1630.920	998.201	-494.984	1747.067	1059.587	-438.843	1643.073	843.561	-64.760	1614.082	892.871	-321.665	1460.791	875.003	-119.475	1451.045	872.917	-163.036	1449.687	893.594	-210.184	1636.311	611.815	-25.771	1539.296	591.137	-64.403	1568.708	464.423	-82.733	1632.611	386.675	-72.621	1578.326	346.139	-71.831	1466.648	346.911	-50.074	1572.104	428.355	-77.509	1449.084	430.535	-69.928	1275.297	360.881	-80.209	1286.710	348.166	-162.065	1258.585	442.292	-116.517	1175.828	278.286	-76.032	1192.041	236.373	-136.618	1633.581	712.858	-369.775	1672.953	587.015	-350.718	1527.789	692.031	-366.808	1554.685	564.264	-331.294	1667.380	426.636	-312.525	1675.766	320.867	-279.402	1604.498	368.052	-322.087	1548.088	263.786	-319.903	1479.952	93.376	-273.537	1388.862	59.709	-237.058	1569.673	36.703	-282.583	1613.752	50.858	-219.672
